<?xml version="1.0" encoding="iso-8859-1"?>
<!-- Uploaded to: SVG Repo, www.svgrepo.com, Generator: SVG Repo Mixer Tools -->
<svg version="1.1" id="Layer_1" xmlns="http://www.w3.org/2000/svg" xmlns:xlink="http://www.w3.org/1999/xlink" 
	 viewBox="0 0 512 512" xml:space="preserve">
<polygon style="fill:#A8EAEF;" points="401.602,403.673 293.276,512 18.248,512 18.248,0 401.602,0 "/>
<polygon style="fill:#80CDD8;" points="401.602,403.673 293.276,512 209.926,512 209.926,0 401.602,0 "/>
<polygon style="fill:#5293A9;" points="293.276,512 293.276,403.673 401.602,403.673 "/>
<path style="fill:#E9E9E9;" d="M406.203,177.829l55.038-29.814c34.095-56.921,43.237-109.216,18.48-133.975
	c-35.179-35.18-125.931-1.96-206.595,74.139l-17.672,58.547l-30.384-5.964c-55.723,71.275-46.16,174.09-46.16,174.09
	s133.73-0.945,216.798-84.014c7.913-7.912,15.406-15.951,22.468-24.052L406.203,177.829z"/>
<path style="fill:#D4D4D4;" d="M406.203,177.829l55.038-29.814c34.095-56.921,43.237-109.216,18.48-133.975L178.909,314.852
	c0,0,133.73-0.945,216.798-84.014c7.913-7.912,15.406-15.951,22.468-24.052L406.203,177.829z"/>
<rect x="203.904" y="127.595" transform="matrix(-0.7071 -0.7071 0.7071 -0.7071 183.4377 622.2859)" style="fill:#818181;" width="33.39" height="291.114"/>
<rect x="80.999" y="270.835" transform="matrix(-0.7071 0.7071 -0.7071 -0.7071 584.113 316.2639)" style="fill:#595959;" width="291.114" height="16.541"/>
</svg>