<?xml version="1.0" encoding="iso-8859-1"?>
<!-- Uploaded to: SVG Repo, www.svgrepo.com, Generator: SVG Repo Mixer Tools -->
<svg version="1.1" id="Layer_1" xmlns="http://www.w3.org/2000/svg" xmlns:xlink="http://www.w3.org/1999/xlink" 
	 viewBox="0 0 512.002 512.002" xml:space="preserve">
<g>
	<rect x="139.685" y="273.833" style="fill:#783C21;" width="19.577" height="154.958"/>
	<rect x="221.717" y="192.469" style="fill:#783C21;" width="19.577" height="154.958"/>
	<rect x="303.459" y="111.106" style="fill:#783C21;" width="19.577" height="154.958"/>
	<rect x="384.444" y="27.457" style="fill:#783C21;" width="19.577" height="154.958"/>
</g>
<g>
	<polygon style="fill:#954927;" points="456.116,170.924 347.149,170.924 347.149,200.29 359.834,200.29 359.834,252.522 
		265.549,252.522 265.549,281.889 278.235,281.889 278.235,334.121 183.951,334.121 183.951,363.487 196.636,363.487 
		196.636,415.72 102.353,415.72 102.353,445.087 115.038,445.087 115.038,512.002 144.404,512.002 456.116,200.29 	"/>
	
		<rect x="230.42" y="-66.56" transform="matrix(-0.7071 -0.7071 0.7071 -0.7071 279.7258 484.5117)" style="fill:#954927;" width="19.577" height="501.766"/>
</g>
</svg>