<?xml version="1.0" encoding="iso-8859-1"?>
<!-- Uploaded to: SVG Repo, www.svgrepo.com, Generator: SVG Repo Mixer Tools -->
<svg height="800px" width="800px" version="1.1" id="Layer_1" xmlns="http://www.w3.org/2000/svg" xmlns:xlink="http://www.w3.org/1999/xlink" 
	 viewBox="0 0 503.467 503.467" xml:space="preserve">
<g transform="translate(1 1)">
	<path style="fill:#80D6FA;" d="M71.849,297.667C30.036,268.653,3.582,220.013,3.582,165.4c0-89.6,72.533-162.133,162.133-162.133
		S327.849,75.8,327.849,165.4c0,22.187-5.12,44.373-12.8,64c-16.213,38.4-46.933,69.12-85.333,85.333
		c-19.627,8.533-40.96,12.8-64,12.8c-21.333,0-41.813-4.267-59.733-11.947C105.129,315.587,86.356,307.907,71.849,297.667
		L71.849,297.667z M100.009,147.48c5.973,5.973,14.507,9.387,23.04,9.387c18.773,0,34.133-15.36,34.133-34.133
		S141.822,88.6,123.049,88.6s-34.133,15.36-34.133,34.133C88.916,132.973,93.182,141.507,100.009,147.48L100.009,147.48z"/>
	<path style="fill:#ECF4F7;" d="M498.516,412.867V498.2h-85.333v-34.133h-34.133v-34.133h-34.133V395.8h-34.133l-81.067-81.067
		c38.4-16.213,69.12-46.933,85.333-85.333l0,0L498.516,412.867z"/>
</g>
<path style="fill:#51565F;" d="M499.516,503.467h-85.333c-2.56,0-4.267-1.707-4.267-4.267v-29.867h-29.867
	c-2.56,0-4.267-1.707-4.267-4.267V435.2h-29.867c-2.56,0-4.267-1.707-4.267-4.267v-29.867h-29.867c-0.853,0-2.56-0.853-3.413-0.853
	l-51.2-51.2c-1.707-1.707-1.707-4.267,0-5.973c1.707-1.707,4.267-1.707,5.973,0l50.347,50.347h32.427
	c2.56,0,4.267,1.707,4.267,4.267v29.867h29.867c2.56,0,4.267,1.707,4.267,4.267v29.867h29.867c2.56,0,4.267,1.707,4.267,4.267
	v29.867h76.8v-79.36L342.502,263.68c-1.707-1.707-1.707-4.267,0-5.973c1.707-1.707,4.267-1.707,5.973,0l153.6,153.6
	c0.853,0.853,0.853,1.707,0.853,3.413v85.333C503.782,501.76,502.076,503.467,499.516,503.467z M465.382,452.267
	c-0.853,0-2.56,0-3.413-0.853l-153.6-153.6c-1.707-1.707-1.707-4.267,0-5.973c1.707-1.707,4.267-1.707,5.973,0l153.6,153.6
	c1.707,1.707,1.707,4.267,0,5.973C467.942,452.267,466.236,452.267,465.382,452.267z M98.449,392.533
	c-29.867,0-29.867-45.227-29.867-81.067c0-3.413,0-6.827,0-10.24C25.916,269.653,0.316,220.16,0.316,166.4
	C0.316,74.24,74.556,0,166.716,0s166.4,74.24,166.4,166.4s-74.24,166.4-166.4,166.4c-21.333,0-41.813-4.267-61.44-11.947
	c-2.56-0.853-3.413-3.413-2.56-5.12c0.853-1.707,3.413-3.413,5.12-2.56c18.773,7.68,38.4,11.093,58.88,11.093
	c87.04,0,157.867-70.827,157.867-157.867S253.756,8.533,166.716,8.533C79.676,8.533,8.849,79.36,8.849,166.4
	c0,48.64,22.187,93.867,59.733,123.733c1.707-73.387,14.507-116.053,26.453-139.947c-5.973-6.827-9.387-16.213-9.387-27.307
	c0-21.333,17.067-38.4,38.4-38.4s38.4,17.067,38.4,38.4c0,17.92-11.947,33.28-29.013,37.547c-2.56,0.853-4.267-0.853-5.12-3.413
	c-0.853-2.56,0.853-4.267,3.413-5.12c13.653-3.413,22.187-15.36,22.187-29.013c0-16.213-13.653-29.867-29.867-29.867
	s-29.867,13.653-29.867,29.867c0,6.827,1.707,13.653,5.12,18.773c11.093-18.773,22.187-22.187,23.04-23.04
	c2.56-0.853,4.267,0.853,5.12,2.56c0.853,2.56-0.853,4.267-2.56,5.12c0,0-46.08,18.773-47.787,170.667v0.853c0,4.267,0,8.533,0,12.8
	c0,32.427,0,72.533,21.333,72.533s21.333-24.747,21.333-25.6c0-2.56,1.707-4.267,4.267-4.267s4.267,1.707,4.267,4.267
	C128.316,370.347,122.342,392.533,98.449,392.533z"/>
</svg>